{
    "asset" : {
        "generator" : "Khronos glTF Blender I/O v1.7.33",
        "version" : "2.0"
    },
    "scene" : 0,
    "scenes" : [
        {
            "name" : "Scene",
            "nodes" : [
                0
            ]
        }
    ],
    "nodes" : [
        {
            "mesh" : 0,
            "name" : "10487_basketball_v1_3dmax2011_it2",
            "rotation" : [
                0.7071068286895752,
                0,
                0,
                0.7071067094802856
            ],
            "scale" : [
                0.028574397787451744,
                0.028574397787451744,
                0.028574397787451744
            ]
        }
    ],
    "materials" : [
        {
            "doubleSided" : true,
            "name" : "13___Default",
            "pbrMetallicRoughness" : {
                "baseColorTexture" : {
                    "index" : 0
                },
                "metallicFactor" : 0,
                "roughnessFactor" : 0.875278115272522
            }
        }
    ],
    "meshes" : [
        {
            "name" : "10487_basketball_v1_3dmax2011_it2",
            "primitives" : [
                {
                    "attributes" : {
                        "POSITION" : 0,
                        "NORMAL" : 1,
                        "TEXCOORD_0" : 2
                    },
                    "indices" : 3,
                    "material" : 0
                }
            ]
        }
    ],
    "textures" : [
        {
            "sampler" : 0,
            "source" : 0
        }
    ],
    "images" : [
        {
            "bufferView" : 4,
            "mimeType" : "image/jpeg",
            "name" : "10487_basketball_diffuse"
        }
    ],
    "accessors" : [
        {
            "bufferView" : 0,
            "componentType" : 5126,
            "count" : 3652,
            "max" : [
                19.665199279785156,
                19.665199279785156,
                19.665300369262695
            ],
            "min" : [
                -19.665199279785156,
                -19.665199279785156,
                -19.66510009765625
            ],
            "type" : "VEC3"
        },
        {
            "bufferView" : 1,
            "componentType" : 5126,
            "count" : 3652,
            "type" : "VEC3"
        },
        {
            "bufferView" : 2,
            "componentType" : 5126,
            "count" : 3652,
            "type" : "VEC2"
        },
        {
            "bufferView" : 3,
            "componentType" : 5123,
            "count" : 20736,
            "type" : "SCALAR"
        }
    ],
    "bufferViews" : [
        {
            "buffer" : 0,
            "byteLength" : 43824,
            "byteOffset" : 0
        },
        {
            "buffer" : 0,
            "byteLength" : 43824,
            "byteOffset" : 43824
        },
        {
            "buffer" : 0,
            "byteLength" : 29216,
            "byteOffset" : 87648
        },
        {
            "buffer" : 0,
            "byteLength" : 41472,
            "byteOffset" : 116864
        },
        {
            "buffer" : 0,
            "byteLength" : 362382,
            "byteOffset" : 158336
        }
    ],
    "samplers" : [
        {
            "magFilter" : 9729,
            "minFilter" : 9987
        }
    ],
    "buffers" : [
        {
            "byteLength" : 520720,
            "uri" : "data:application/octet-stream;base64,"
        }
    ]
}
