{
    "asset" : {
        "generator" : "Khronos glTF Blender I/O v1.7.33",
        "version" : "2.0"
    },
    "scene" : 0,
    "scenes" : [
        {
            "name" : "Scene",
            "nodes" : [
                0
            ]
        }
    ],
    "nodes" : [
        {
            "mesh" : 0,
            "name" : "10536_soccerball_V1_iterations-2",
            "rotation" : [
                0.7071068286895752,
                0,
                0,
                0.7071067094802856
            ],
            "scale" : [
                0.06136541813611984,
                0.06136541813611984,
                0.06136541813611984
            ],
            "translation" : [
                0,
                0,
                -0.40022706985473633
            ]
        }
    ],
    "materials" : [
        {
            "doubleSided" : true,
            "name" : "10536_soccerball_V1_mat",
            "pbrMetallicRoughness" : {
                "baseColorTexture" : {
                    "index" : 0
                },
                "metallicFactor" : 0,
                "roughnessFactor" : 0.8945907354354858
            }
        }
    ],
    "meshes" : [
        {
            "name" : "10536_soccerball_V1_iterations-2",
            "primitives" : [
                {
                    "attributes" : {
                        "POSITION" : 0,
                        "NORMAL" : 1,
                        "TEXCOORD_0" : 2
                    },
                    "indices" : 3,
                    "material" : 0
                }
            ]
        }
    ],
    "textures" : [
        {
            "sampler" : 0,
            "source" : 0
        }
    ],
    "images" : [
        {
            "bufferView" : 4,
            "mimeType" : "image/jpeg",
            "name" : "10536_soccerball_V1_diffuse"
        }
    ],
    "accessors" : [
        {
            "bufferView" : 0,
            "componentType" : 5126,
            "count" : 3625,
            "max" : [
                7.267499923706055,
                14.744799613952637,
                7.267499923706055
            ],
            "min" : [
                -7.242300033569336,
                0.23499999940395355,
                -7.242300033569336
            ],
            "type" : "VEC3"
        },
        {
            "bufferView" : 1,
            "componentType" : 5126,
            "count" : 3625,
            "type" : "VEC3"
        },
        {
            "bufferView" : 2,
            "componentType" : 5126,
            "count" : 3625,
            "type" : "VEC2"
        },
        {
            "bufferView" : 3,
            "componentType" : 5123,
            "count" : 20736,
            "type" : "SCALAR"
        }
    ],
    "bufferViews" : [
        {
            "buffer" : 0,
            "byteLength" : 43500,
            "byteOffset" : 0
        },
        {
            "buffer" : 0,
            "byteLength" : 43500,
            "byteOffset" : 43500
        },
        {
            "buffer" : 0,
            "byteLength" : 29000,
            "byteOffset" : 87000
        },
        {
            "buffer" : 0,
            "byteLength" : 41472,
            "byteOffset" : 116000
        },
        {
            "buffer" : 0,
            "byteLength" : 214535,
            "byteOffset" : 157472
        }
    ],
    "samplers" : [
        {
            "magFilter" : 9729,
            "minFilter" : 9987
        }
    ],
    "buffers" : [
        {
            "byteLength" : 372008,
            "uri" : "data:application/octet-stream;base64,"
        }
    ]
}
