{
    "asset" : {
        "generator" : "Khronos glTF Blender I/O v1.7.33",
        "version" : "2.0"
    },
    "scene" : 0,
    "scenes" : [
        {
            "name" : "Scene",
            "nodes" : [
                0
            ]
        }
    ],
    "nodes" : [
        {
            "mesh" : 0,
            "name" : "Text.001",
            "rotation" : [
                0.7221249938011169,
                -0.00521846441552043,
                -0.0011077033123001456,
                0.6917420625686646
            ],
            "scale" : [
                0.002751978812739253,
                0.0027519785799086094,
                0.0027519778814166784
            ],
            "translation" : [
                -0.006779210641980171,
                0.01193604338914156,
                0.029388470575213432
            ]
        }
    ],
    "materials" : [
        {
            "doubleSided" : true,
            "name" : "Material.001",
            "pbrMetallicRoughness" : {
                "metallicFactor" : 0,
                "roughnessFactor" : 0.4000000059604645
            }
        },
        {
            "doubleSided" : true,
            "name" : "Material.021",
            "pbrMetallicRoughness" : {
                "baseColorFactor" : [
                    0.9911022186279297,
                    0,
                    0,
                    1
                ],
                "metallicFactor" : 0,
                "roughnessFactor" : 0.4000000059604645
            }
        }
    ],
    "meshes" : [
        {
            "name" : "Text.001",
            "primitives" : [
                {
                    "attributes" : {
                        "POSITION" : 0,
                        "NORMAL" : 1,
                        "TEXCOORD_0" : 2
                    },
                    "indices" : 3,
                    "material" : 0
                },
                {
                    "attributes" : {
                        "POSITION" : 4,
                        "NORMAL" : 5,
                        "TEXCOORD_0" : 6
                    },
                    "indices" : 7,
                    "material" : 1
                }
            ]
        }
    ],
    "accessors" : [
        {
            "bufferView" : 0,
            "componentType" : 5126,
            "count" : 1874,
            "max" : [
                3.741000175476074,
                0.08999999612569809,
                0.23000000417232513
            ],
            "min" : [
                0.07500000298023224,
                -0.08999999612569809,
                -0.6860000491142273
            ],
            "type" : "VEC3"
        },
        {
            "bufferView" : 1,
            "componentType" : 5126,
            "count" : 1874,
            "type" : "VEC3"
        },
        {
            "bufferView" : 2,
            "componentType" : 5126,
            "count" : 1874,
            "type" : "VEC2"
        },
        {
            "bufferView" : 3,
            "componentType" : 5123,
            "count" : 3348,
            "type" : "SCALAR"
        },
        {
            "bufferView" : 4,
            "componentType" : 5126,
            "count" : 1426,
            "max" : [
                3.6890408992767334,
                0.08098559826612473,
                -0.7803623676300049
            ],
            "min" : [
                0.055041369050741196,
                -0.10070023685693741,
                -1.428978681564331
            ],
            "type" : "VEC3"
        },
        {
            "bufferView" : 5,
            "componentType" : 5126,
            "count" : 1426,
            "type" : "VEC3"
        },
        {
            "bufferView" : 6,
            "componentType" : 5126,
            "count" : 1426,
            "type" : "VEC2"
        },
        {
            "bufferView" : 7,
            "componentType" : 5123,
            "count" : 2460,
            "type" : "SCALAR"
        }
    ],
    "bufferViews" : [
        {
            "buffer" : 0,
            "byteLength" : 22488,
            "byteOffset" : 0
        },
        {
            "buffer" : 0,
            "byteLength" : 22488,
            "byteOffset" : 22488
        },
        {
            "buffer" : 0,
            "byteLength" : 14992,
            "byteOffset" : 44976
        },
        {
            "buffer" : 0,
            "byteLength" : 6696,
            "byteOffset" : 59968
        },
        {
            "buffer" : 0,
            "byteLength" : 17112,
            "byteOffset" : 66664
        },
        {
            "buffer" : 0,
            "byteLength" : 17112,
            "byteOffset" : 83776
        },
        {
            "buffer" : 0,
            "byteLength" : 11408,
            "byteOffset" : 100888
        },
        {
            "buffer" : 0,
            "byteLength" : 4920,
            "byteOffset" : 112296
        }
    ],
    "buffers" : [
        {
            "byteLength" : 117216,
            "uri" : "data:application/octet-stream;base64,"
        }
    ]
}
