{
    "asset" : {
        "generator" : "Khronos glTF Blender I/O v1.7.33",
        "version" : "2.0"
    },
    "scene" : 0,
    "scenes" : [
        {
            "name" : "Scene",
            "nodes" : [
                0
            ]
        }
    ],
    "nodes" : [
        {
            "mesh" : 0,
            "name" : "10488_basketball_goal_L3",
            "rotation" : [
                -0.02795087732374668,
                0,
                0,
                0.9996092915534973
            ],
            "scale" : [
                0.004685995168983936,
                0.004685995168983936,
                0.004685995168983936
            ]
        }
    ],
    "materials" : [
        {
            "doubleSided" : true,
            "name" : "10488_basketball_goal_diffuse_v1",
            "pbrMetallicRoughness" : {
                "baseColorTexture" : {
                    "index" : 0
                },
                "metallicFactor" : 0,
                "roughnessFactor" : 0.8945907354354858
            }
        }
    ],
    "meshes" : [
        {
            "name" : "10488_basketball_goal_L3",
            "primitives" : [
                {
                    "attributes" : {
                        "POSITION" : 0,
                        "NORMAL" : 1,
                        "TEXCOORD_0" : 2
                    },
                    "indices" : 3,
                    "material" : 0
                }
            ]
        }
    ],
    "textures" : [
        {
            "sampler" : 0,
            "source" : 0
        }
    ],
    "images" : [
        {
            "bufferView" : 4,
            "mimeType" : "image/jpeg",
            "name" : "10488_basketball_goal_diffuse_v1"
        }
    ],
    "accessors" : [
        {
            "bufferView" : 0,
            "componentType" : 5126,
            "count" : 14735,
            "max" : [
                45.30699920654297,
                362.1780090332031,
                106.61620330810547
            ],
            "min" : [
                -83.17729949951172,
                -1.5197999477386475,
                -61.39419937133789
            ],
            "type" : "VEC3"
        },
        {
            "bufferView" : 1,
            "componentType" : 5126,
            "count" : 14735,
            "type" : "VEC3"
        },
        {
            "bufferView" : 2,
            "componentType" : 5126,
            "count" : 14735,
            "type" : "VEC2"
        },
        {
            "bufferView" : 3,
            "componentType" : 5123,
            "count" : 81792,
            "type" : "SCALAR"
        }
    ],
    "bufferViews" : [
        {
            "buffer" : 0,
            "byteLength" : 176820,
            "byteOffset" : 0
        },
        {
            "buffer" : 0,
            "byteLength" : 176820,
            "byteOffset" : 176820
        },
        {
            "buffer" : 0,
            "byteLength" : 117880,
            "byteOffset" : 353640
        },
        {
            "buffer" : 0,
            "byteLength" : 163584,
            "byteOffset" : 471520
        },
        {
            "buffer" : 0,
            "byteLength" : 511196,
            "byteOffset" : 635104
        }
    ],
    "samplers" : [
        {
            "magFilter" : 9729,
            "minFilter" : 9987
        }
    ],
    "buffers" : [
        {
            "byteLength" : 1146300,
            "uri" : "data:application/octet-stream;base64,"
        }
    ]
}
