{
    "asset" : {
        "generator" : "Khronos glTF Blender I/O v1.7.33",
        "version" : "2.0"
    },
    "scene" : 0,
    "scenes" : [
        {
            "name" : "Scene",
            "nodes" : [
                0
            ]
        }
    ],
    "nodes" : [
        {
            "mesh" : 0,
            "name" : "10520_pingpongtable_L2",
            "rotation" : [
                -0.009385270066559315,
                0,
                0,
                0.999955952167511
            ],
            "scale" : [
                0.009643364697694778,
                0.009643364697694778,
                0.009643364697694778
            ]
        }
    ],
    "materials" : [
        {
            "doubleSided" : true,
            "name" : "10520_pingpongtable_mat",
            "pbrMetallicRoughness" : {
                "baseColorTexture" : {
                    "index" : 0
                },
                "metallicFactor" : 0,
                "roughnessFactor" : 0.7550510168075562
            }
        }
    ],
    "meshes" : [
        {
            "name" : "10520_pingpongtable_L2",
            "primitives" : [
                {
                    "attributes" : {
                        "POSITION" : 0,
                        "NORMAL" : 1,
                        "TEXCOORD_0" : 2
                    },
                    "indices" : 3,
                    "material" : 0
                }
            ]
        }
    ],
    "textures" : [
        {
            "sampler" : 0,
            "source" : 0
        }
    ],
    "images" : [
        {
            "bufferView" : 4,
            "mimeType" : "image/jpeg",
            "name" : "10520_pingpongtable_difuse"
        }
    ],
    "accessors" : [
        {
            "bufferView" : 0,
            "componentType" : 5126,
            "count" : 18895,
            "max" : [
                89.5790023803711,
                96.45970153808594,
                137.77330017089844
            ],
            "min" : [
                -89.5790023803711,
                0.03669999912381172,
                -138.3730010986328
            ],
            "type" : "VEC3"
        },
        {
            "bufferView" : 1,
            "componentType" : 5126,
            "count" : 18895,
            "type" : "VEC3"
        },
        {
            "bufferView" : 2,
            "componentType" : 5126,
            "count" : 18895,
            "type" : "VEC2"
        },
        {
            "bufferView" : 3,
            "componentType" : 5123,
            "count" : 96696,
            "type" : "SCALAR"
        }
    ],
    "bufferViews" : [
        {
            "buffer" : 0,
            "byteLength" : 226740,
            "byteOffset" : 0
        },
        {
            "buffer" : 0,
            "byteLength" : 226740,
            "byteOffset" : 226740
        },
        {
            "buffer" : 0,
            "byteLength" : 151160,
            "byteOffset" : 453480
        },
        {
            "buffer" : 0,
            "byteLength" : 193392,
            "byteOffset" : 604640
        },
        {
            "buffer" : 0,
            "byteLength" : 413079,
            "byteOffset" : 798032
        }
    ],
    "samplers" : [
        {
            "magFilter" : 9729,
            "minFilter" : 9987
        }
    ],
    "buffers" : [
        {
            "byteLength" : 1211112,
            "uri" : "data:application/octet-stream;base64,"
        }
    ]
}
